<?xml version='1.0' encoding='iso-8859-1'?>
<!DOCTYPE svg PUBLIC '-//W3C//DTD SVG 1.1//EN' 'http://www.w3.org/Graphics/SVG/1.1/DTD/svg11.dtd'>
<svg version="1.1" xmlns="http://www.w3.org/2000/svg" viewBox="0 0 418.48 418.48" xmlns:xlink="http://www.w3.org/1999/xlink" enable-background="new 0 0 418.48 418.48">
  <g>
    <path d="m284.275,254.979c33.544,0 60.834-27.29 60.834-60.834s-27.29-60.834-60.834-60.834c-33.544,0-60.834,27.29-60.834,60.834s27.29,60.834 60.834,60.834zm0-106.668c25.273,0 45.834,20.561 45.834,45.834s-20.561,45.834-45.834,45.834c-25.273,0-45.834-20.561-45.834-45.834s20.561-45.834 45.834-45.834z"/>
    <path d="m284.275,221.04c14.83,0 26.895-12.065 26.895-26.895 0-14.83-12.065-26.895-26.895-26.895s-26.896,12.065-26.896,26.895c0.001,14.83 12.066,26.895 26.896,26.895zm0-38.79c6.559,0 11.895,5.336 11.895,11.895 0,6.559-5.336,11.895-11.895,11.895s-11.896-5.336-11.896-11.895c0.001-6.559 5.337-11.895 11.896-11.895z"/>
    <path d="m387.004,39.652h-355.528c-17.356,0-31.476,14.12-31.476,31.475v246.035c0,17.356 14.12,31.475 31.476,31.475h7.264v22.69c0,4.142 3.358,7.5 7.5,7.5h52c4.142,0 7.5-3.358 7.5-7.5v-22.69h207v22.69c0,4.142 3.358,7.5 7.5,7.5h52c4.142,0 7.5-3.358 7.5-7.5v-22.69h7.265c17.355,0 31.476-14.12 31.476-31.475v-246.035c-0.001-17.355-14.121-31.475-31.477-31.475zm-296.264,324.176h-37v-15.19h37v15.19zm274,0h-37v-15.19h37v15.19zm38.74-46.666c0,9.084-7.391,16.475-16.476,16.475h-355.528c-9.084,0-16.476-7.391-16.476-16.475v-246.035c0-9.084 7.391-16.475 16.476-16.475h355.529c9.084,0 16.476,7.391 16.476,16.475v246.035z"/>
    <path d="m374.979,75.652h-331.479c-4.142,0-7.5,3.358-7.5,7.5v221.985c0,4.142 3.358,7.5 7.5,7.5h331.479c4.142,0 7.5-3.358 7.5-7.5v-221.985c0-4.142-3.357-7.5-7.5-7.5zm-7.5,221.985h-316.479v-60.884h69.513l18.857,18.857c-1.116,2.491-1.75,5.242-1.75,8.143 0,11.028 8.972,20 20,20s20-8.972 20-20-8.972-20-20-20c-2.631,0-5.139,0.524-7.442,1.451l-21.255-21.254c-1.406-1.406-3.314-2.197-5.303-2.197h-72.62v-14.75h119.842c2.974,7.32 10.153,12.5 18.528,12.5 11.028,0 20-8.972 20-20s-8.972-20-20-20c-8.375,0-15.553,5.18-18.528,12.5h-119.842v-14.75h49.496c1.989,0 3.897-0.79 5.303-2.197l21.255-21.255c2.303,0.928 4.811,1.451 7.442,1.451 11.028,0 20-8.972 20-20s-8.972-20-20-20-20,8.972-20,20c0,2.901 0.635,5.652 1.751,8.143l-18.857,18.857h-46.39v-71.6h316.479v206.985zm-209.859-38.883c2.757,0 5,2.243 5,5s-2.243,5-5,5-5-2.243-5-5 2.243-5 5-5zm26.75-59.25c0-2.757 2.243-5 5-5s5,2.243 5,5-2.243,5-5,5-5-2.243-5-5zm-54.874-64.25c0-2.757 2.243-5 5-5s5,2.243 5,5-2.243,5-5,5-5-2.243-5-5z"/>
  </g>
</svg>
